<svg width="32" height="32" viewBox="0 0 32 32" fill="none" xmlns="http://www.w3.org/2000/svg">
<g clip-path="url(#clip0_7_86)">
<path d="M20.5128 3.33333H11.4871C9.93022 3.33333 8.66663 4.58909 8.66663 6.13636V25.197C8.66663 26.7442 9.93022 28 11.4871 28H20.5128C22.0697 28 23.3333 26.7442 23.3333 25.197V6.13636C23.3333 4.58909 22.0697 3.33333 20.5128 3.33333ZM16 26.8788C15.0635 26.8788 14.3077 26.1276 14.3077 25.197C14.3077 24.2664 15.0635 23.5152 16 23.5152C16.9364 23.5152 17.6923 24.2664 17.6923 25.197C17.6923 26.1276 16.9364 26.8788 16 26.8788ZM21.0769 22.3939H10.923V6.69697H21.0769V22.3939Z" fill="white"/>
</g>
<defs>
<clipPath id="clip0_7_86">
<rect width="32" height="32" fill="white"/>
</clipPath>
</defs>
</svg>
