<svg id="圖層_1" data-name="圖層 1" xmlns="http://www.w3.org/2000/svg" viewBox="0 0 48 48"><defs><style>.cls-1{fill:#ffb60c;}</style></defs><title>zona_logo</title><path class="cls-1" d="M44,31.3a3.72,3.72,0,0,0-.87-.54,3.5,3.5,0,0,0-4.76,2.54,3.48,3.48,0,0,0,.74,2.93,1,1,0,0,1,0,1.33,20.48,20.48,0,0,1-3.76,3.32L23.71,29.2,39.38,13.52a3,3,0,0,0,.09-4.15A21.41,21.41,0,0,0,8.64,8.75l-.1.1.12.08a5.81,5.81,0,0,1,.65.56L9.4,9.4a20.37,20.37,0,0,1,23-4,2,2,0,0,1,.57,3.23L7.65,34A3,3,0,0,0,7.5,38a21.74,21.74,0,0,0,3.86,3.5,21.36,21.36,0,0,0,24.58.14l.12-.08a21.81,21.81,0,0,0,4.15-3.82,1.05,1.05,0,0,1,1-.34A3.07,3.07,0,0,0,43.41,37a3.59,3.59,0,0,0,1.84-2.9A3.49,3.49,0,0,0,44,31.3ZM34.43,41.39l-1.06.6L22.14,30.76,23,29.9Zm-20.07.82A2,2,0,0,1,13.88,39l7.56-7.56L32.49,42.53a20.39,20.39,0,0,1-18.13-.32Z"/><path class="cls-1" d="M8.75,13a3,3,0,1,0-3,3A3,3,0,0,0,8.75,13Zm-3,2a2,2,0,1,1,2-2A2,2,0,0,1,5.75,15Z"/></svg>